<mxfile host="app.diagrams.net" agent="Mozilla/5.0 (Windows NT 10.0; Win64; x64) AppleWebKit/537.36 (KHTML, like Gecko) Chrome/130.0.0.0 Safari/537.36" version="24.8.4">
  <diagram name="Page-1" id="c4P0QMS0-4G8p_oBopXX">
    <mxGraphModel dx="1120" dy="468" grid="1" gridSize="10" guides="1" tooltips="1" connect="1" arrows="1" fold="1" page="1" pageScale="1" pageWidth="850" pageHeight="1100" math="0" shadow="0">
      <root>
        <mxCell id="0" />
        <mxCell id="1" parent="0" />
        <mxCell id="PDgRdPxH8ZEeAix5t_-z-18" value="" style="shape=image;html=1;verticalAlign=top;verticalLabelPosition=bottom;labelBackgroundColor=#ffffff;imageAspect=0;aspect=fixed;image=https://cdn2.iconfinder.com/data/icons/woothemes/PNG/intruder.png" vertex="1" parent="1">
          <mxGeometry x="80" y="30" width="80" height="80" as="geometry" />
        </mxCell>
        <mxCell id="PDgRdPxH8ZEeAix5t_-z-19" value="&lt;b&gt;Attacker&lt;/b&gt;" style="text;html=1;align=center;verticalAlign=middle;whiteSpace=wrap;rounded=0;" vertex="1" parent="1">
          <mxGeometry x="60" y="100" width="60" height="30" as="geometry" />
        </mxCell>
        <mxCell id="PDgRdPxH8ZEeAix5t_-z-20" value="" style="sketch=0;pointerEvents=1;shadow=0;dashed=0;html=1;strokeColor=none;fillColor=#505050;labelPosition=center;verticalLabelPosition=bottom;verticalAlign=top;outlineConnect=0;align=center;shape=mxgraph.office.users.mail_user;" vertex="1" parent="1">
          <mxGeometry x="260" y="40.5" width="58" height="59" as="geometry" />
        </mxCell>
        <mxCell id="PDgRdPxH8ZEeAix5t_-z-21" value="&lt;b&gt;Victim&lt;/b&gt;" style="text;html=1;align=center;verticalAlign=middle;whiteSpace=wrap;rounded=0;" vertex="1" parent="1">
          <mxGeometry x="230" y="99.5" width="60" height="30" as="geometry" />
        </mxCell>
        <mxCell id="PDgRdPxH8ZEeAix5t_-z-22" value="" style="points=[[0.13,0.225,0],[0.5,0,0],[0.87,0.225,0],[0.885,0.5,0],[0.985,0.99,0],[0.5,1,0],[0.015,0.99,0],[0.115,0.5,0]];verticalLabelPosition=bottom;sketch=0;html=1;verticalAlign=top;aspect=fixed;align=center;pointerEvents=1;shape=mxgraph.cisco19.laptop_video_client;fillColor=#005073;strokeColor=none;" vertex="1" parent="1">
          <mxGeometry x="430" y="40.5" width="70" height="59.5" as="geometry" />
        </mxCell>
        <mxCell id="PDgRdPxH8ZEeAix5t_-z-23" value="&lt;b&gt;Vulnerable Client&lt;/b&gt;" style="text;html=1;align=center;verticalAlign=middle;whiteSpace=wrap;rounded=0;" vertex="1" parent="1">
          <mxGeometry x="415" y="99.5" width="100" height="30" as="geometry" />
        </mxCell>
        <mxCell id="PDgRdPxH8ZEeAix5t_-z-24" value="" style="image;points=[];aspect=fixed;html=1;align=center;shadow=0;dashed=0;image=img/lib/allied_telesis/storage/Datacenter_Server_Rack_ToR.svg;" vertex="1" parent="1">
          <mxGeometry x="610" y="30" width="39.47" height="80" as="geometry" />
        </mxCell>
        <mxCell id="PDgRdPxH8ZEeAix5t_-z-25" value="&lt;b&gt;Authorization Server&lt;/b&gt;" style="text;html=1;align=center;verticalAlign=middle;whiteSpace=wrap;rounded=0;" vertex="1" parent="1">
          <mxGeometry x="580" y="99.5" width="140.27" height="30" as="geometry" />
        </mxCell>
        <mxCell id="PDgRdPxH8ZEeAix5t_-z-26" value="" style="shape=link;html=1;rounded=0;" edge="1" parent="1">
          <mxGeometry width="100" relative="1" as="geometry">
            <mxPoint x="120" y="120" as="sourcePoint" />
            <mxPoint x="120" y="400" as="targetPoint" />
          </mxGeometry>
        </mxCell>
        <mxCell id="PDgRdPxH8ZEeAix5t_-z-27" value="" style="shape=link;html=1;rounded=0;" edge="1" parent="1">
          <mxGeometry width="100" relative="1" as="geometry">
            <mxPoint x="290" y="120" as="sourcePoint" />
            <mxPoint x="290" y="400" as="targetPoint" />
          </mxGeometry>
        </mxCell>
        <mxCell id="PDgRdPxH8ZEeAix5t_-z-28" value="" style="shape=link;html=1;rounded=0;" edge="1" parent="1">
          <mxGeometry width="100" relative="1" as="geometry">
            <mxPoint x="464.5" y="120" as="sourcePoint" />
            <mxPoint x="465" y="400" as="targetPoint" />
          </mxGeometry>
        </mxCell>
        <mxCell id="PDgRdPxH8ZEeAix5t_-z-29" value="" style="shape=link;html=1;rounded=0;" edge="1" parent="1">
          <mxGeometry width="100" relative="1" as="geometry">
            <mxPoint x="629.23" y="120" as="sourcePoint" />
            <mxPoint x="629" y="400" as="targetPoint" />
          </mxGeometry>
        </mxCell>
        <mxCell id="PDgRdPxH8ZEeAix5t_-z-30" value="" style="endArrow=classic;html=1;rounded=0;" edge="1" parent="1">
          <mxGeometry width="50" height="50" relative="1" as="geometry">
            <mxPoint x="290" y="210" as="sourcePoint" />
            <mxPoint x="630" y="210" as="targetPoint" />
          </mxGeometry>
        </mxCell>
        <mxCell id="PDgRdPxH8ZEeAix5t_-z-35" value="" style="endArrow=classic;html=1;rounded=0;" edge="1" parent="1">
          <mxGeometry width="50" height="50" relative="1" as="geometry">
            <mxPoint x="630" y="210" as="sourcePoint" />
            <mxPoint x="630" y="260" as="targetPoint" />
            <Array as="points">
              <mxPoint x="670" y="210" />
              <mxPoint x="690" y="220" />
              <mxPoint x="690" y="250" />
              <mxPoint x="670" y="260" />
            </Array>
          </mxGeometry>
        </mxCell>
        <mxCell id="PDgRdPxH8ZEeAix5t_-z-36" value="" style="endArrow=classic;html=1;rounded=0;" edge="1" parent="1">
          <mxGeometry width="50" height="50" relative="1" as="geometry">
            <mxPoint x="630" y="260" as="sourcePoint" />
            <mxPoint x="290" y="260" as="targetPoint" />
          </mxGeometry>
        </mxCell>
        <mxCell id="PDgRdPxH8ZEeAix5t_-z-37" value="" style="endArrow=classic;html=1;rounded=0;" edge="1" parent="1">
          <mxGeometry width="50" height="50" relative="1" as="geometry">
            <mxPoint x="300" y="330" as="sourcePoint" />
            <mxPoint x="460" y="330" as="targetPoint" />
          </mxGeometry>
        </mxCell>
        <mxCell id="PDgRdPxH8ZEeAix5t_-z-38" value="" style="endArrow=classic;html=1;rounded=0;" edge="1" parent="1">
          <mxGeometry width="50" height="50" relative="1" as="geometry">
            <mxPoint x="460" y="350" as="sourcePoint" />
            <mxPoint x="300" y="350" as="targetPoint" />
          </mxGeometry>
        </mxCell>
        <mxCell id="PDgRdPxH8ZEeAix5t_-z-39" value="" style="endArrow=none;dashed=1;html=1;rounded=0;" edge="1" parent="1">
          <mxGeometry width="50" height="50" relative="1" as="geometry">
            <mxPoint x="290" y="370" as="sourcePoint" />
            <mxPoint x="140" y="370" as="targetPoint" />
          </mxGeometry>
        </mxCell>
        <mxCell id="PDgRdPxH8ZEeAix5t_-z-40" value="" style="endArrow=classic;html=1;rounded=0;" edge="1" parent="1">
          <mxGeometry width="50" height="50" relative="1" as="geometry">
            <mxPoint x="140" y="370" as="sourcePoint" />
            <mxPoint x="120" y="370" as="targetPoint" />
          </mxGeometry>
        </mxCell>
        <mxCell id="PDgRdPxH8ZEeAix5t_-z-42" value="&lt;b&gt;&lt;font style=&quot;font-size: 9px;&quot;&gt;AuthZ&lt;/font&gt;&lt;/b&gt;&lt;div&gt;&lt;b&gt;&lt;font style=&quot;font-size: 9px;&quot;&gt;code&lt;/font&gt;&lt;/b&gt;&lt;/div&gt;" style="shape=hexagon;perimeter=hexagonPerimeter2;whiteSpace=wrap;html=1;fixedSize=1;fillColor=#FF9933;rotation=-30;" vertex="1" parent="1">
          <mxGeometry x="309.33" y="227.5" width="50" height="30" as="geometry" />
        </mxCell>
        <mxCell id="PDgRdPxH8ZEeAix5t_-z-43" value="&lt;b&gt;&lt;font style=&quot;font-size: 9px;&quot;&gt;AuthZ&lt;/font&gt;&lt;/b&gt;&lt;div&gt;&lt;b&gt;&lt;font style=&quot;font-size: 9px;&quot;&gt;code&lt;/font&gt;&lt;/b&gt;&lt;/div&gt;" style="shape=hexagon;perimeter=hexagonPerimeter2;whiteSpace=wrap;html=1;fixedSize=1;fillColor=#FF9933;rotation=-30;size=20.670000000000073;" vertex="1" parent="1">
          <mxGeometry x="129.99999999999997" y="330" width="50" height="30" as="geometry" />
        </mxCell>
        <mxCell id="PDgRdPxH8ZEeAix5t_-z-44" value="&lt;b&gt;&lt;font style=&quot;font-size: 9px;&quot;&gt;AuthZ&lt;/font&gt;&lt;/b&gt;&lt;div&gt;&lt;b&gt;&lt;font style=&quot;font-size: 9px;&quot;&gt;code&lt;/font&gt;&lt;/b&gt;&lt;/div&gt;" style="shape=hexagon;perimeter=hexagonPerimeter2;whiteSpace=wrap;html=1;fixedSize=1;fillColor=#FF9933;rotation=-30;size=20.670000000000073;" vertex="1" parent="1">
          <mxGeometry x="300" y="300" width="50" height="30" as="geometry" />
        </mxCell>
        <mxCell id="PDgRdPxH8ZEeAix5t_-z-45" value="&lt;b&gt;HTTP 302&lt;/b&gt;" style="text;html=1;align=center;verticalAlign=middle;whiteSpace=wrap;rounded=0;" vertex="1" parent="1">
          <mxGeometry x="640" y="180" width="60" height="30" as="geometry" />
        </mxCell>
        <mxCell id="PDgRdPxH8ZEeAix5t_-z-46" value="&lt;b&gt;&lt;font style=&quot;font-size: 10px;&quot;&gt;Victim authorizes a vulnerable client&lt;/font&gt;&lt;/b&gt;" style="text;html=1;align=center;verticalAlign=middle;whiteSpace=wrap;rounded=0;" vertex="1" parent="1">
          <mxGeometry x="304.33" y="160" width="75.67" height="30" as="geometry" />
        </mxCell>
        <mxCell id="PDgRdPxH8ZEeAix5t_-z-47" value="&lt;font style=&quot;font-size: 8px;&quot;&gt;&lt;b&gt;Victim&#39;s browser loads the redirect URI page, the HTML includes an img or script tag for a resource at the attacker;s server&lt;/b&gt;&lt;/font&gt;" style="text;html=1;align=center;verticalAlign=middle;whiteSpace=wrap;rounded=0;" vertex="1" parent="1">
          <mxGeometry x="318" y="270" width="140.67" height="30" as="geometry" />
        </mxCell>
        <mxCell id="PDgRdPxH8ZEeAix5t_-z-48" value="&lt;b&gt;&lt;font style=&quot;font-size: 10px;&quot;&gt;Victim&#39;s browser fetches the resource in the img or script tag and sends the authorization code in the Referer header&lt;/font&gt;&lt;/b&gt;" style="text;html=1;align=center;verticalAlign=middle;whiteSpace=wrap;rounded=0;" vertex="1" parent="1">
          <mxGeometry x="120" y="280" width="160" height="30" as="geometry" />
        </mxCell>
      </root>
    </mxGraphModel>
  </diagram>
</mxfile>
